<?xml version="1.0" encoding="utf-8"?>
<!-- Generator: Adobe Illustrator 16.0.0, SVG Export Plug-In . SVG Version: 6.00 Build 0)  -->
<!DOCTYPE svg PUBLIC "-//W3C//DTD SVG 1.1//EN" "http://www.w3.org/Graphics/SVG/1.1/DTD/svg11.dtd">
<svg version="1.1" id="Layer_1" xmlns="http://www.w3.org/2000/svg" xmlns:xlink="http://www.w3.org/1999/xlink" x="0px" y="0px"
	 width="100px" height="82.907px" viewBox="0 0 100 82.907" enable-background="new 0 0 100 82.907" xml:space="preserve">
<path fill="#FFFFFF" d="M77.943,82.907H5.574C2.203,82.907,0,80.542,0,77.667V21.944c0-3.456,2.118-6.072,5.574-6.072h44.453v11.051
	h-38.98v45.006h60.975V54.797l11.99-0.008v22.875C84.012,80.542,81.229,82.907,77.943,82.907L77.943,82.907z"/>
<polygon fill="#FFFFFF" points="16.544,66.935 39.792,44.608 50.236,54.387 61.469,39.622 66.973,50.159 67.012,66.935 "/>
<path fill="#FFFFFF" d="M28.048,44.446c-3.169,0-5.744-2.575-5.744-5.745c0-3.177,2.575-5.751,5.744-5.751
	c3.178,0,5.752,2.574,5.752,5.751C33.8,41.871,31.226,44.446,28.048,44.446L28.048,44.446z"/>
<polygon fill="#FFFFFF" points="84.043,21.944 84.043,43.965 71.982,43.965 71.967,21.944 56.119,21.944 78.059,0 100,21.944 "/>
</svg>
