<?xml version="1.0" encoding="utf-8"?>
<!-- Generator: Adobe Illustrator 16.0.0, SVG Export Plug-In . SVG Version: 6.00 Build 0)  -->
<!DOCTYPE svg PUBLIC "-//W3C//DTD SVG 1.1//EN" "http://www.w3.org/Graphics/SVG/1.1/DTD/svg11.dtd">
<svg version="1.1" id="Layer_1" xmlns="http://www.w3.org/2000/svg" xmlns:xlink="http://www.w3.org/1999/xlink" x="0px" y="0px"
	 width="100px" height="89.455px" viewBox="0 0 100 89.455" enable-background="new 0 0 100 89.455" xml:space="preserve">
<g>
	<path d="M49.556-1.314c-0.904,0.144-1.675,0.7-2.109,1.476L0.387,83.563c-0.516,0.918-0.517,2.096,0,3.008
		c0.524,0.926,1.494,1.532,2.551,1.532h94.123c1.055,0,2.028-0.606,2.553-1.532c0.516-0.912,0.516-2.09,0-3.008L52.553,0.162
		C51.949-0.915,50.779-1.51,49.556-1.314 M50,8.28l39.957,71.99H9.987L50,8.28z"/>
	<path fill="#010101" d="M50.257,66.519c-2.705,0-4.905,2.24-4.905,4.994s2.2,4.994,4.905,4.994s4.905-2.24,4.905-4.994
		S52.962,66.519,50.257,66.519z"/>
	<path fill="#010101" d="M51.763,24.726h-3.416c-2.302,0-4.106,2.666-4.104,6.128L45.7,54.118c0,3.402,1.805,6.067,4.109,6.067
		h0.494c2.303,0,4.105-2.665,4.104-6.007l1.463-23.387C55.87,27.392,54.066,24.726,51.763,24.726z"/>
</g>
</svg>
