<?xml version="1.0" encoding="utf-8"?>
<!-- Generator: Adobe Illustrator 16.0.0, SVG Export Plug-In . SVG Version: 6.00 Build 0)  -->
<!DOCTYPE svg PUBLIC "-//W3C//DTD SVG 1.1//EN" "http://www.w3.org/Graphics/SVG/1.1/DTD/svg11.dtd">
<svg version="1.1" id="Layer_1" xmlns="http://www.w3.org/2000/svg" xmlns:xlink="http://www.w3.org/1999/xlink" x="0px" y="0px"
	 width="100px" height="100px" viewBox="0 0 100 100" enable-background="new 0 0 100 100" xml:space="preserve">
<g id="Captions">
</g>
<g id="Your_Icon">
	<path fill="#FFFFFF" d="M35,40v34h6V40H35z M47,40v34h6V40H47z M59,40v34h6V40H59z M65,16c0-5-1.221-6-6-6H39
		c-5.04,0-5.96,1.1-5.96,6.02L33,22H17c-2.96,0-4,0.98-4,4v2c0,3.1,1.04,4,4,4h2v52c0,4.98,1.1,6,6,6h48c5,0,8-0.939,8-6V32h2
		c3.02,0,4-0.961,4-4v-2c0-2.961-0.859-4-4-4H65V16z M59,16v6H39v-6H59z M29,32h42v48H29V32z"/>
</g>
</svg>
